<svg width="205" height="199" viewBox="0 0 205 199" fill="none" xmlns="http://www.w3.org/2000/svg">
<path fill-rule="evenodd" clip-rule="evenodd" d="M36.5225 139.1C36.5225 139.1 36.5223 139.1 36.7432 139.224C36.8637 139.446 36.8639 139.446 36.8639 139.446L36.8763 139.44L36.9142 139.419L37.0637 139.339C37.1952 139.269 37.3892 139.167 37.6386 139.037C38.1375 138.776 38.8581 138.405 39.7445 137.962C41.5175 137.078 43.9523 135.91 46.6008 134.776C49.2503 133.641 52.1086 132.543 54.7295 131.795C57.36 131.045 59.7159 130.659 61.3766 130.918L61.4548 130.418C59.6779 130.14 57.2308 130.555 54.5906 131.308C51.9408 132.064 49.0607 133.171 46.4015 134.31C43.7413 135.449 41.2972 136.622 39.5184 137.509C38.6288 137.953 37.9054 138.326 37.4041 138.588C37.3926 138.594 37.3813 138.6 37.37 138.605C37.4461 138.464 37.5317 138.305 37.6259 138.128C38.0382 137.353 38.6143 136.246 39.27 134.919C40.5809 132.265 42.212 128.724 43.4875 125.183C44.7598 121.651 45.6909 118.086 45.5752 115.397C45.5173 114.051 45.1958 112.89 44.4884 112.067C43.7731 111.234 42.6973 110.786 41.2198 110.8L41.2247 111.306C42.5915 111.293 43.509 111.704 44.1043 112.397C44.7074 113.099 45.0137 114.129 45.0692 115.419C45.1804 118.002 44.2806 121.487 43.011 125.011C41.7446 128.527 40.1226 132.049 38.816 134.694C38.1629 136.017 37.5891 137.119 37.1788 137.89C36.9736 138.275 36.8093 138.578 36.6964 138.785C36.6399 138.888 36.5963 138.967 36.5669 139.02L36.5335 139.08L36.5225 139.1ZM36.7432 139.224L36.8639 139.446L36.0947 139.863L36.5225 139.1L36.7432 139.224Z" fill="white"/>
<path fill-rule="evenodd" clip-rule="evenodd" d="M101.338 77.8456C79.5879 89.5681 60.1772 106.04 48.4428 125.034L48.8737 125.3C60.5497 106.4 79.8841 89.9838 101.578 78.2915C123.272 66.5991 147.302 59.6437 168.353 59.6437V59.1372C147.2 59.1372 123.087 66.1231 101.338 77.8456Z" fill="white"/>
<path d="M36.7432 139.224C36.5223 139.1 36.5225 139.1 36.5225 139.1M36.7432 139.224C36.8637 139.446 36.8639 139.446 36.8639 139.446M36.7432 139.224L36.8639 139.446M36.7432 139.224L36.5225 139.1M36.5225 139.1L36.0947 139.863L36.8639 139.446M36.5225 139.1L36.5335 139.08L36.5669 139.02C36.5963 138.967 36.6399 138.888 36.6964 138.785C36.8093 138.578 36.9736 138.275 37.1788 137.89C37.5891 137.119 38.1629 136.017 38.816 134.694C40.1226 132.049 41.7446 128.527 43.011 125.011C44.2806 121.487 45.1804 118.002 45.0692 115.419C45.0137 114.129 44.7074 113.099 44.1043 112.397C43.509 111.704 42.5915 111.293 41.2247 111.306L41.2198 110.8C42.6973 110.786 43.7731 111.234 44.4884 112.067C45.1958 112.89 45.5173 114.051 45.5752 115.397C45.6909 118.086 44.7598 121.651 43.4875 125.183C42.212 128.724 40.5809 132.265 39.27 134.919C38.6143 136.246 38.0382 137.353 37.6259 138.128C37.5317 138.305 37.4461 138.464 37.37 138.605C37.3813 138.6 37.3926 138.594 37.4041 138.588C37.9054 138.326 38.6288 137.953 39.5184 137.509C41.2972 136.622 43.7413 135.449 46.4015 134.31C49.0607 133.171 51.9408 132.064 54.5906 131.308C57.2308 130.555 59.6779 130.14 61.4548 130.418L61.3766 130.918C59.7159 130.659 57.36 131.045 54.7295 131.795C52.1086 132.543 49.2503 133.641 46.6008 134.776C43.9523 135.91 41.5175 137.078 39.7445 137.962C38.8581 138.405 38.1375 138.776 37.6386 139.037C37.3892 139.167 37.1952 139.269 37.0637 139.339L36.9142 139.419L36.8763 139.44L36.8639 139.446M48.4428 125.034C60.1772 106.04 79.5879 89.5681 101.338 77.8456C123.087 66.1231 147.2 59.1372 168.353 59.1372V59.6437C147.302 59.6437 123.272 66.5991 101.578 78.2915C79.8841 89.9838 60.5497 106.4 48.8737 125.3L48.4428 125.034Z" stroke="white"/>
</svg>
