<svg width="34" height="25" viewBox="0 0 34 25" fill="none" xmlns="http://www.w3.org/2000/svg">
<path d="M28.5103 2.1583C26.4488 1.1973 24.2168 0.499801 21.8918 0.0968018C21.8509 0.0973841 21.8119 0.114098 21.7833 0.143302C21.5043 0.654801 21.1788 1.3213 20.9618 1.8328C18.4958 1.46103 15.9879 1.46103 13.5218 1.8328C13.3048 1.3058 12.9793 0.654801 12.6848 0.143302C12.6693 0.112302 12.6228 0.0968018 12.5763 0.0968018C10.2514 0.499801 8.03486 1.1973 5.95787 2.1583C5.94237 2.1583 5.92687 2.1738 5.91137 2.1893C1.69538 8.49778 0.532882 14.6358 1.10638 20.7117C1.10638 20.7427 1.12188 20.7737 1.15288 20.7892C3.94287 22.8352 6.62437 24.0752 9.27486 24.8967C9.32136 24.9122 9.36786 24.8967 9.38336 24.8657C10.0034 24.0132 10.5614 23.1142 11.0419 22.1687C11.0729 22.1067 11.0419 22.0447 10.9799 22.0292C10.0964 21.6882 9.25936 21.2852 8.43786 20.8202C8.37586 20.7892 8.37586 20.6962 8.42236 20.6497C8.59286 20.5257 8.76336 20.3862 8.93386 20.2622C8.96486 20.2312 9.01136 20.2312 9.04236 20.2467C14.3743 22.6802 20.1248 22.6802 25.3948 20.2467C25.4258 20.2312 25.4723 20.2312 25.5033 20.2622C25.6738 20.4017 25.8443 20.5257 26.0148 20.6652C26.0768 20.7117 26.0768 20.8047 25.9993 20.8357C25.1933 21.3162 24.3408 21.7037 23.4573 22.0447C23.3953 22.0602 23.3798 22.1377 23.3953 22.1842C23.8913 23.1297 24.4493 24.0287 25.0538 24.8812C25.1003 24.8967 25.1468 24.9122 25.1933 24.8967C27.8593 24.0752 30.5408 22.8352 33.3308 20.7892C33.3618 20.7737 33.3773 20.7427 33.3773 20.7117C34.0593 13.6903 32.2458 7.59878 28.5723 2.1893C28.5568 2.1738 28.5413 2.1583 28.5103 2.1583ZM11.8479 17.0073C10.2514 17.0073 8.91836 15.5348 8.91836 13.7213C8.91836 11.9078 10.2204 10.4353 11.8479 10.4353C13.4908 10.4353 14.7928 11.9233 14.7773 13.7213C14.7773 15.5348 13.4753 17.0073 11.8479 17.0073ZM22.6513 17.0073C21.0548 17.0073 19.7218 15.5348 19.7218 13.7213C19.7218 11.9078 21.0238 10.4353 22.6513 10.4353C24.2943 10.4353 25.5963 11.9233 25.5808 13.7213C25.5808 15.5348 24.2943 17.0073 22.6513 17.0073Z" fill="white"/>
</svg>
