<svg width="936" height="363" viewBox="0 0 936 363" fill="none" xmlns="http://www.w3.org/2000/svg">
<path d="M468.173 0.865173C597.288 0.865173 714.149 21.1224 798.707 53.8505C840.988 70.2153 875.158 89.6851 898.746 111.27C922.334 132.855 935.289 156.504 935.289 181.25C935.289 205.996 922.334 229.644 898.746 251.229C875.158 272.815 840.988 292.285 798.707 308.649C714.149 341.377 597.288 361.635 468.173 361.635C339.058 361.635 222.197 341.377 137.64 308.649C95.3588 292.285 61.1889 272.815 37.6006 251.229C14.0127 229.644 1.05762 205.996 1.05762 181.25C1.05765 156.504 14.0127 132.855 37.6006 111.27C61.1889 89.6851 95.3589 70.2153 137.64 53.8505C222.197 21.1225 339.058 0.865212 468.173 0.865173Z" stroke="url(#paint0_linear_19_247)" stroke-width="1.34615"/>
<defs>
<linearGradient id="paint0_linear_19_247" x1="468.173" y1="0.192322" x2="468.173" y2="362.308" gradientUnits="userSpaceOnUse">
<stop stop-opacity="0"/>
<stop offset="0.479167" stop-color="#763CAC"/>
</linearGradient>
</defs>
</svg>
