<svg width="1030" height="363" viewBox="0 0 1030 363" fill="none" xmlns="http://www.w3.org/2000/svg">
<path d="M515.038 0.865173C656.983 0.865173 785.462 21.1238 878.431 53.8574C924.918 70.2253 962.49 89.7005 988.428 111.292C1014.37 132.887 1028.6 156.53 1028.6 181.25C1028.6 205.97 1014.37 229.614 988.428 251.209C962.49 272.8 924.918 292.275 878.431 308.643C785.462 341.376 656.983 361.635 515.038 361.635C373.093 361.635 244.614 341.376 151.646 308.643C105.159 292.275 67.5867 272.8 41.6494 251.209C15.7081 229.614 1.48047 205.97 1.48047 181.25C1.4805 156.53 15.7082 132.887 41.6494 111.292C67.5867 89.7006 105.158 70.2252 151.646 53.8574C244.614 21.1237 373.093 0.865202 515.038 0.865173Z" stroke="url(#paint0_linear_19_246)" stroke-width="1.34615"/>
<defs>
<linearGradient id="paint0_linear_19_246" x1="515.038" y1="0.192322" x2="515.038" y2="362.308" gradientUnits="userSpaceOnUse">
<stop stop-opacity="0"/>
<stop offset="0.479167" stop-color="#763CAC"/>
</linearGradient>
</defs>
</svg>
