<svg width="1186" height="363" viewBox="0 0 1186 363" fill="none" xmlns="http://www.w3.org/2000/svg">
<path d="M592.98 0.865173C756.68 0.865173 904.856 21.1255 1012.08 53.8661C1065.7 70.2378 1109.05 89.7193 1138.97 111.32C1168.91 132.932 1185.29 156.572 1185.29 181.25C1185.29 205.928 1168.91 229.568 1138.97 251.181C1109.05 272.782 1065.7 292.262 1012.08 308.634C904.856 341.374 756.68 361.635 592.98 361.635C429.281 361.635 281.106 341.374 173.877 308.634C120.258 292.262 76.9158 272.782 46.9932 251.181C17.055 229.568 0.672852 205.928 0.672852 181.25C0.672892 156.572 17.0552 132.932 46.9932 111.32C76.9158 89.7193 120.258 70.2378 173.877 53.8661C281.106 21.1256 429.281 0.865204 592.98 0.865173Z" stroke="url(#paint0_linear_19_245)" stroke-width="1.34615"/>
<defs>
<linearGradient id="paint0_linear_19_245" x1="592.981" y1="0.192322" x2="592.981" y2="362.308" gradientUnits="userSpaceOnUse">
<stop stop-opacity="0"/>
<stop offset="0.479167" stop-color="#763CAC"/>
</linearGradient>
</defs>
</svg>
