<svg width="32" height="31" viewBox="0 0 32 31" fill="none" xmlns="http://www.w3.org/2000/svg">
<path d="M16.3271 0.375488C14.2916 0.375488 12.2761 0.776407 10.3955 1.55535C8.51499 2.3343 6.80629 3.47602 5.36698 4.91532C2.46018 7.82213 0.827148 11.7646 0.827148 15.8754C0.827148 22.7264 5.27564 28.5389 11.4291 30.6004C12.2041 30.7244 12.4521 30.2439 12.4521 29.8254V27.2059C8.15863 28.1359 7.24413 25.1289 7.24413 25.1289C6.53113 23.3309 5.52364 22.8504 5.52364 22.8504C4.11314 21.8894 5.63214 21.9204 5.63214 21.9204C7.18213 22.0289 8.00363 23.5169 8.00363 23.5169C9.35213 25.8729 11.6306 25.1754 12.5141 24.8034C12.6536 23.7959 13.0566 23.1139 13.4906 22.7264C10.0496 22.3389 6.43813 21.0059 6.43813 15.1004C6.43813 13.38 7.02713 12.0005 8.03463 10.9C7.87963 10.5125 7.33713 8.90047 8.18963 6.80797C8.18963 6.80797 9.49163 6.38947 12.4521 8.38897C13.6766 8.04797 15.0096 7.87747 16.3271 7.87747C17.6446 7.87747 18.9776 8.04797 20.2021 8.38897C23.1626 6.38947 24.4646 6.80797 24.4646 6.80797C25.3171 8.90047 24.7746 10.5125 24.6196 10.9C25.6271 12.0005 26.2161 13.38 26.2161 15.1004C26.2161 21.0214 22.5891 22.3234 19.1326 22.7109C19.6906 23.1914 20.2021 24.1369 20.2021 25.5784V29.8254C20.2021 30.2439 20.4501 30.7399 21.2406 30.6004C27.3941 28.5234 31.8271 22.7264 31.8271 15.8754C31.8271 13.84 31.4261 11.8244 30.6472 9.94387C29.8683 8.06333 28.7265 6.35463 27.2872 4.91532C25.8479 3.47602 24.1392 2.3343 22.2587 1.55535C20.3781 0.776407 18.3626 0.375488 16.3271 0.375488Z" fill="white"/>
</svg>
