<svg width="20" height="24" viewBox="0 0 20 24" fill="none" xmlns="http://www.w3.org/2000/svg">
<path fill-rule="evenodd" clip-rule="evenodd" d="M9.96165 0.127808C4.75697 0.127808 0.538574 5.39959 0.538574 11.9017C0.538574 18.4039 4.75697 23.6757 9.96165 23.6757C15.1655 23.6757 19.3847 18.4039 19.3847 11.9017C19.3847 5.39959 15.1655 0.127808 9.96165 0.127808ZM10.0716 18.7875C7.03422 18.7875 4.57479 15.7067 4.57479 11.9017C4.57479 8.0968 7.03422 5.01596 10.0716 5.01596C11.5557 5.01596 12.7964 5.69983 13.7482 6.8105L12.1981 8.75124V8.74731C11.6209 8.05854 10.889 7.70532 10.0716 7.70532C8.25765 7.70532 6.78372 9.62447 6.78372 11.8978C6.78372 14.1692 8.25765 16.0943 10.0716 16.0943C11.7175 16.0943 12.8373 14.9149 13.0681 13.296H10.0716V10.6105H15.2425C15.3116 11.0717 15.3485 11.5525 15.3485 12.0568C15.3485 15.9912 13.2464 18.7875 10.0716 18.7875Z" fill="url(#paint0_linear_19_268)"/>
<defs>
<linearGradient id="paint0_linear_19_268" x1="9.96165" y1="0.127808" x2="9.96165" y2="23.6757" gradientUnits="userSpaceOnUse">
<stop stop-color="#693B93" stop-opacity="0.53"/>
<stop offset="1" stop-color="#693B93"/>
</linearGradient>
</defs>
</svg>
