<svg width="18" height="21" viewBox="0 0 18 21" fill="none" xmlns="http://www.w3.org/2000/svg">
<path fill-rule="evenodd" clip-rule="evenodd" d="M0.383789 2.45557C0.383789 2.00978 0.532778 1.58225 0.79798 1.26703C1.06318 0.951811 1.42287 0.774721 1.79793 0.774721H15.8947C16.0805 0.774361 16.2646 0.817578 16.4364 0.901898C16.6082 0.986219 16.7643 1.10999 16.8958 1.26612C17.0273 1.42225 17.1316 1.60767 17.2028 1.81177C17.2739 2.01588 17.3104 2.23465 17.3103 2.45557V19.2111C17.3105 19.432 17.2741 19.6509 17.2031 19.8551C17.132 20.0593 17.0278 20.2448 16.8964 20.4011C16.765 20.5574 16.609 20.6814 16.4372 20.7659C16.2654 20.8504 16.0813 20.8939 15.8954 20.8937H1.79793C1.61215 20.8937 1.4282 20.8502 1.25658 20.7657C1.08496 20.6812 0.929033 20.5573 0.797708 20.4011C0.666383 20.2449 0.562235 20.0595 0.491213 19.8555C0.420191 19.6515 0.383688 19.4328 0.383789 19.212V2.45557ZM7.08363 8.44556H9.37564V9.81365C9.70647 9.02718 10.5528 8.31936 11.8246 8.31936C14.2628 8.31936 14.8406 9.8859 14.8406 12.7602V18.0844H12.3732V13.415C12.3732 11.778 12.0423 10.8544 11.2022 10.8544C10.0365 10.8544 9.55183 11.8502 9.55183 13.415V18.0844H7.08363V8.44556ZM2.85199 17.9591H5.32019V8.31936H2.85199V17.9582V17.9591ZM5.67334 5.1753C5.67799 5.42649 5.64039 5.67625 5.56273 5.90993C5.48507 6.14361 5.36893 6.3565 5.22112 6.53611C5.0733 6.71571 4.89679 6.85842 4.70195 6.95584C4.50711 7.05327 4.29785 7.10345 4.08647 7.10345C3.87509 7.10345 3.66584 7.05327 3.471 6.95584C3.27615 6.85842 3.09965 6.71571 2.95183 6.53611C2.80402 6.3565 2.68787 6.14361 2.61022 5.90993C2.53256 5.67625 2.49496 5.42649 2.49961 5.1753C2.50874 4.68225 2.67994 4.21305 2.97654 3.86819C3.27314 3.52333 3.67156 3.33022 4.08647 3.33022C4.50139 3.33022 4.89981 3.52333 5.1964 3.86819C5.493 4.21305 5.6642 4.68225 5.67334 5.1753Z" fill="url(#paint0_linear_19_274)"/>
<defs>
<linearGradient id="paint0_linear_19_274" x1="8.84707" y1="0.774719" x2="8.84707" y2="20.8937" gradientUnits="userSpaceOnUse">
<stop stop-color="#693B93" stop-opacity="0.53"/>
<stop offset="1" stop-color="#693B93"/>
</linearGradient>
</defs>
</svg>
