<svg width="20" height="22" viewBox="0 0 20 22" fill="none" xmlns="http://www.w3.org/2000/svg">
<path d="M16.1806 0.943604H3.96011C2.28268 0.943604 0.922852 2.52941 0.922852 4.48559V18.2035C0.922852 20.1597 2.28268 21.7455 3.96011 21.7455H16.1806C17.858 21.7455 19.2178 20.1597 19.2178 18.2035V4.48559C19.2178 2.52941 17.858 0.943604 16.1806 0.943604Z" fill="url(#paint0_linear_19_260)"/>
<path d="M10.541 6.41534L8.25815 10.8093L10.7005 15.4752C10.7162 15.5078 10.7205 15.5462 10.7128 15.5825C10.709 15.598 10.7008 15.6018 10.6883 15.6024L10.6744 15.6022L10.6576 15.6017C10.6484 15.6017 10.6382 15.6022 10.6269 15.6043H8.86596L8.83137 15.6037C8.73646 15.6008 8.66807 15.5849 8.62641 15.5037C8.46348 15.1336 8.29982 14.7639 8.13545 14.3946C7.98841 14.0652 7.83737 13.7383 7.68236 13.4139L7.61389 13.271C7.4285 12.8868 7.24644 12.5003 7.06776 12.1118H7.05547C6.89046 12.4963 6.72066 12.878 6.54614 13.2567C6.37012 13.6384 6.19625 14.0178 6.02452 14.3946C5.85269 14.7717 5.67677 15.1462 5.49682 15.5181C5.46788 15.5939 5.41978 15.6098 5.35282 15.6123L5.32495 15.6128H3.6436L3.63631 15.6131L3.61229 15.6156C3.59893 15.6165 3.59093 15.6132 3.58835 15.5897C3.58374 15.5548 3.5903 15.5191 3.60679 15.4895L5.97542 10.9524L3.66811 6.40117C3.6436 6.36317 3.63952 6.33217 3.65582 6.30817C3.66487 6.29594 3.67624 6.28633 3.68903 6.28012C3.70182 6.2739 3.71567 6.27123 3.7295 6.27233H5.45995C5.49768 6.26992 5.53541 6.27726 5.57043 6.29383C5.59973 6.31325 5.62496 6.34017 5.64404 6.37259C5.79133 6.75429 5.95498 7.13599 6.135 7.51753C6.31363 7.89665 6.49568 8.27357 6.68114 8.64821C6.86375 9.01705 7.03366 9.39425 7.19047 9.7789H7.20276C7.36345 9.39434 7.52915 9.01265 7.6998 8.63396C7.86738 8.26184 8.03925 7.88723 8.2152 7.51036C8.38891 7.13833 8.5587 6.76382 8.72453 6.38692C8.73396 6.35159 8.75083 6.31958 8.77363 6.29383C8.80394 6.27593 8.838 6.26847 8.87182 6.27233H10.4796C10.4943 6.26803 10.5099 6.26945 10.524 6.27637C10.538 6.28328 10.5497 6.29532 10.5574 6.31068C10.565 6.32604 10.5682 6.34388 10.5664 6.36152C10.5646 6.37917 10.558 6.39565 10.5475 6.40851L10.541 6.41551L10.541 6.41534ZM14.1478 15.7889L14.0632 15.79C13.4983 15.8001 12.9385 15.6632 12.4247 15.3893C11.946 15.131 11.5459 14.7092 11.2772 14.1799C11.0063 13.6552 10.8672 13.0013 10.8602 12.2185L10.8599 12.1547C10.8553 11.4978 10.9993 10.8511 11.2773 10.2798C11.5555 9.71429 11.9611 9.24836 12.4501 8.93249L12.4922 8.90582C13.0239 8.56229 13.6662 8.39052 14.4191 8.39052L14.4519 8.39094L14.4895 8.39235L14.5317 8.39452L14.5786 8.39769L14.6573 8.40419L14.7465 8.41252L14.8118 8.41919V5.5996C14.8118 5.53293 14.8363 5.49943 14.8854 5.49943H16.4318C16.4418 5.49775 16.452 5.49882 16.4616 5.50254C16.4712 5.50626 16.4799 5.51254 16.487 5.52087C16.4942 5.5292 16.4995 5.53936 16.5027 5.55054C16.5059 5.56171 16.5068 5.5736 16.5054 5.58527V14.044C16.5054 14.186 16.5101 14.339 16.5196 14.5027L16.5424 14.8739L16.5546 15.0887C16.5561 15.1185 16.5499 15.148 16.5367 15.1736C16.5236 15.1991 16.5041 15.2195 16.4809 15.2319C16.0819 15.4259 15.6664 15.5698 15.2413 15.6612C14.8805 15.7389 14.5147 15.7816 14.1478 15.7889ZM14.8118 14.0153V10.108C14.7454 10.0871 14.6777 10.0727 14.6093 10.0651C14.5257 10.0553 14.4417 10.0505 14.3577 10.0508C14.0599 10.0473 13.7655 10.1258 13.4986 10.2798C13.2386 10.4305 13.0166 10.6574 12.8543 10.9382C12.6923 11.2145 12.6084 11.5754 12.6029 12.0208L12.6026 12.0689C12.5967 12.3808 12.6404 12.6914 12.7315 12.9848C12.8057 13.2212 12.923 13.4361 13.0752 13.6146C13.221 13.7788 13.3974 13.9012 13.5906 13.9724C13.7948 14.0494 14.0081 14.0881 14.2227 14.087C14.3372 14.087 14.4435 14.0821 14.5418 14.0725C14.6201 14.0657 14.6978 14.0506 14.7739 14.0275L14.8118 14.0153Z" fill="black"/>
<defs>
<linearGradient id="paint0_linear_19_260" x1="10.0703" y1="0.943604" x2="10.0703" y2="21.7455" gradientUnits="userSpaceOnUse">
<stop stop-color="#693B93" stop-opacity="0.53"/>
<stop offset="1" stop-color="#693B93"/>
</linearGradient>
</defs>
</svg>
