<svg width="28" height="16" viewBox="0 0 28 16" fill="none" xmlns="http://www.w3.org/2000/svg">
<path d="M20.1094 8.90617C21.548 7.94259 22.9827 6.97117 24.4262 6.01768C25.7964 5.11227 27.4083 5.94718 27.719 7.70892C27.8988 8.72805 27.5086 9.82901 26.7196 10.3652C24.1329 12.1231 21.5425 13.874 18.9392 15.5981C18.1334 16.1317 17.3034 16.0336 16.5691 15.3797C15.8232 14.7158 15.5881 13.8 15.7631 12.7342C15.9628 11.9228 16.4199 11.3804 17.0434 10.9746C18.0741 10.3037 19.0882 9.59746 20.1094 8.90617Z" fill="url(#paint0_linear_19_263)"/>
<path d="M21.1653 8.2063C19.7304 7.23525 18.2918 6.2718 16.8618 5.29091C15.5044 4.35972 15.3185 2.31423 16.4714 1.11948C17.1383 0.428559 18.151 0.27199 18.9437 0.800736C21.5426 2.5342 24.138 4.27502 26.72 6.04211C27.5191 6.58904 27.8611 7.47652 27.7429 8.54509C27.6227 9.63024 27.0604 10.3255 26.1813 10.6819C25.4789 10.8859 24.8475 10.6953 24.2345 10.2686C23.2208 9.56298 22.1893 8.89186 21.1653 8.2063Z" fill="url(#paint1_linear_19_263)"/>
<path d="M8.08652 7.51934C7.16573 8.12943 6.2444 8.73839 5.32446 9.35034C4.78647 9.70831 4.25425 10.0785 3.71348 10.4305C2.62372 11.1399 1.32899 10.7241 0.711106 9.47465C0.121419 8.28238 0.460321 6.73662 1.50982 6.02216C4.07588 4.27549 6.64856 2.54153 9.23054 0.826873C10.0224 0.301117 10.844 0.367257 11.5763 0.995898C12.3491 1.65942 12.6021 2.5931 12.4286 3.68758C12.3209 3.95252 12.2566 4.26304 12.0953 4.47167C11.8332 4.81109 11.5352 5.13606 11.2035 5.37471C10.1769 6.11297 9.12715 6.80775 8.08652 7.51934Z" fill="url(#paint2_linear_19_263)"/>
<path d="M7.03148 8.20278C7.94501 8.82756 8.8579 9.45371 9.77228 10.0767C10.3071 10.4412 10.8481 10.7936 11.3799 11.1636C12.4516 11.9097 12.7902 13.4251 12.1713 14.6738C11.5806 15.8655 10.2634 16.2963 9.20802 15.5934C6.62786 13.8751 4.05389 12.144 1.48964 10.3936C0.703217 9.85677 0.341565 8.99396 0.442285 7.94008C0.548559 6.82766 1.11539 6.10535 2.01503 5.7333C2.2655 5.70976 2.52825 5.61933 2.76386 5.67787C3.14698 5.77303 3.53737 5.91142 3.88043 6.12715C4.942 6.79478 5.98274 7.5075 7.03148 8.20278Z" fill="url(#paint3_linear_19_263)"/>
<defs>
<linearGradient id="paint0_linear_19_263" x1="21.7351" y1="5.64859" x2="21.7351" y2="15.9421" gradientUnits="userSpaceOnUse">
<stop stop-color="#693B93" stop-opacity="0.53"/>
<stop offset="1" stop-color="#693B93"/>
</linearGradient>
<linearGradient id="paint1_linear_19_263" x1="21.7393" y1="0.485504" x2="21.7393" y2="10.764" gradientUnits="userSpaceOnUse">
<stop stop-color="#693B93" stop-opacity="0.53"/>
<stop offset="1" stop-color="#693B93"/>
</linearGradient>
<linearGradient id="paint2_linear_19_263" x1="6.45182" y1="0.473999" x2="6.45182" y2="10.7757" gradientUnits="userSpaceOnUse">
<stop stop-color="#693B93" stop-opacity="0.53"/>
<stop offset="1" stop-color="#693B93"/>
</linearGradient>
<linearGradient id="paint3_linear_19_263" x1="6.45258" y1="5.65848" x2="6.45258" y2="15.9323" gradientUnits="userSpaceOnUse">
<stop stop-color="#693B93" stop-opacity="0.53"/>
<stop offset="1" stop-color="#693B93"/>
</linearGradient>
</defs>
</svg>
