<svg width="17" height="21" viewBox="0 0 17 21" fill="none" xmlns="http://www.w3.org/2000/svg">
<path d="M1.40489 1.38646H16.2122V19.5276H1.40489V1.38646ZM0.730469 20.3756H16.8843V0.538483H0.730469V20.3756ZM11.3112 7.60863C11.3112 7.54105 11.3314 7.5069 11.392 7.5069H12.4489C12.5026 7.5069 12.5297 7.53233 12.5297 7.60863V14.2973C12.5297 14.3649 12.5164 14.399 12.4489 14.399H11.4064C11.3389 14.399 11.3187 14.3569 11.3187 14.2886V7.60863H11.3118H11.3112ZM11.2374 5.6845C11.2374 5.45517 11.3097 5.23523 11.4385 5.07307C11.5672 4.91091 11.7418 4.81981 11.9239 4.81981C12.106 4.81981 12.2806 4.91091 12.4094 5.07307C12.5381 5.23523 12.6105 5.45517 12.6105 5.6845C12.6171 5.80165 12.6035 5.91923 12.5705 6.02908C12.5375 6.13892 12.4859 6.23842 12.4193 6.32067C12.3528 6.40292 12.2728 6.46596 12.185 6.50542C12.0971 6.54488 12.0035 6.55982 11.9107 6.5492C11.8197 6.55638 11.7285 6.5388 11.6434 6.49763C11.5583 6.45646 11.4812 6.39268 11.4175 6.31062C11.3537 6.22857 11.3047 6.13017 11.2738 6.02213C11.2429 5.91408 11.2309 5.79893 11.2385 5.6845H11.2374ZM8.20855 10.3982C8.01989 9.45355 7.57393 7.4059 7.40778 6.41404H7.39451C7.25316 7.4059 6.89662 9.08442 6.61393 10.3982H8.20855ZM6.33758 11.7715L5.80566 14.3147C5.79239 14.3823 5.7722 14.3997 5.7047 14.3997H4.71643C4.64893 14.3997 4.63566 14.3743 4.64893 14.2726L6.56028 5.84363C6.6068 5.61383 6.62949 5.3774 6.62778 5.14025C6.62778 5.08067 6.64797 5.05524 6.68143 5.05524H8.09489C8.1422 5.05524 8.16239 5.07195 8.17566 5.14025L10.316 14.2871C10.3293 14.3547 10.316 14.3976 10.2624 14.3976H9.14489C9.09124 14.3976 9.0572 14.3809 9.04393 14.3249L8.49182 11.773H6.33816L6.33758 11.7715Z" fill="url(#paint0_linear_19_272)"/>
<defs>
<linearGradient id="paint0_linear_19_272" x1="8.80739" y1="0.538483" x2="8.80739" y2="20.3756" gradientUnits="userSpaceOnUse">
<stop stop-color="#693B93" stop-opacity="0.53"/>
<stop offset="1" stop-color="#693B93"/>
</linearGradient>
</defs>
</svg>
