<svg width="412" height="371" viewBox="0 0 412 371" fill="none" xmlns="http://www.w3.org/2000/svg">
<path d="M206.039 0.942078C319.486 0.942255 411.327 83.577 411.327 185.365C411.327 287.153 319.486 369.789 206.039 369.789C92.5919 369.789 0.75 287.153 0.75 185.365C0.750275 83.5769 92.5921 0.942078 206.039 0.942078Z" stroke="url(#paint0_linear_19_248)" stroke-width="1.34615"/>
<path d="M205.366 123.442C260.104 123.442 309.626 135.778 345.44 155.688C381.277 175.611 403.251 203.027 403.251 233.154C403.251 263.281 381.277 290.696 345.44 310.619C309.626 330.529 260.104 342.865 205.366 342.865C150.628 342.865 101.106 330.529 65.292 310.619C29.4552 290.696 7.48152 263.281 7.48145 233.154C7.48145 203.027 29.4551 175.611 65.292 155.688C101.106 135.778 150.629 123.442 205.366 123.442Z" stroke="url(#paint1_linear_19_248)" stroke-width="1.34615"/>
<defs>
<linearGradient id="paint0_linear_19_248" x1="206.039" y1="0.269226" x2="206.039" y2="370.462" gradientUnits="userSpaceOnUse">
<stop offset="0.197917" stop-opacity="0"/>
<stop offset="1" stop-color="#763CAC"/>
</linearGradient>
<linearGradient id="paint1_linear_19_248" x1="205.366" y1="122.769" x2="205.366" y2="343.538" gradientUnits="userSpaceOnUse">
<stop offset="0.197917" stop-opacity="0"/>
<stop offset="1" stop-color="#763CAC"/>
</linearGradient>
</defs>
</svg>
