<svg width="29" height="29" viewBox="0 0 29 29" fill="none" xmlns="http://www.w3.org/2000/svg">
<path d="M14.1605 0.339355C10.3177 0.339355 9.83449 0.357056 8.32463 0.424319C6.81476 0.495121 5.78635 0.73231 4.88539 1.08278C3.94034 1.43825 3.08433 1.99583 2.3772 2.71656C1.65692 3.42405 1.0994 4.27995 0.743428 5.22474C0.392955 6.12394 0.153996 7.15411 0.0849632 8.65867C0.0177007 10.1721 0 10.6535 0 14.5017C0 18.3463 0.0177007 18.8277 0.0849632 20.3376C0.155766 21.8457 0.392955 22.8741 0.743428 23.775C1.10629 24.7061 1.58952 25.4956 2.3772 26.2832C3.16311 27.0709 3.95256 27.5559 4.88362 27.917C5.78635 28.2675 6.81299 28.5064 8.32109 28.5755C9.83272 28.6427 10.3142 28.6604 14.1605 28.6604C18.0069 28.6604 18.4866 28.6427 19.9982 28.5755C21.5045 28.5047 22.5365 28.2675 23.4375 27.917C24.3819 27.5614 25.2373 27.0038 25.9439 26.2832C26.7316 25.4956 27.2148 24.7061 27.5777 23.775C27.9264 22.8741 28.1653 21.8457 28.2361 20.3376C28.3034 18.8277 28.3211 18.3463 28.3211 14.4999C28.3211 10.6535 28.3034 10.1721 28.2361 8.66044C28.1653 7.15412 27.9264 6.12394 27.5777 5.22474C27.2217 4.27992 26.6642 3.42401 25.9439 2.71656C25.237 1.99556 24.3809 1.43794 23.4357 1.08278C22.533 0.73231 21.5028 0.493351 19.9965 0.424319C18.4848 0.357056 18.0051 0.339355 14.157 0.339355H14.1623H14.1605ZM12.8914 2.89179H14.1623C17.9432 2.89179 18.391 2.90418 19.8832 2.97322C21.2638 3.03517 22.0143 3.26705 22.5135 3.45998C23.1737 3.71664 23.6463 4.02464 24.142 4.52025C24.6376 5.01587 24.9438 5.48671 25.2005 6.14872C25.3952 6.64611 25.6253 7.39661 25.6872 8.77727C25.7563 10.2694 25.7704 10.7173 25.7704 14.4964C25.7704 18.2754 25.7563 18.725 25.6872 20.2172C25.6253 21.5979 25.3934 22.3466 25.2005 22.8458C24.9734 23.4606 24.6111 24.0166 24.1402 24.4725C23.6446 24.9681 23.1737 25.2743 22.5117 25.531C22.0161 25.7257 21.2656 25.9558 19.8832 26.0195C18.391 26.0868 17.9432 26.1027 14.1623 26.1027C10.3814 26.1027 9.93185 26.0868 8.43968 26.0195C7.05903 25.9558 6.31029 25.7257 5.81113 25.531C5.19603 25.3042 4.63957 24.9425 4.18267 24.4725C3.71139 24.0158 3.34848 23.4594 3.12063 22.844C2.92769 22.3466 2.69581 21.5961 2.63386 20.2154C2.5666 18.7233 2.55244 18.2754 2.55244 14.4928C2.55244 10.712 2.5666 10.2659 2.63386 8.77373C2.69758 7.39307 2.92769 6.64257 3.1224 6.14341C3.37906 5.48317 3.68705 5.01056 4.18267 4.51494C4.67829 4.01933 5.14913 3.7131 5.81113 3.45644C6.31029 3.26174 7.05903 3.03163 8.43968 2.96791C9.74599 2.90772 10.2522 2.89002 12.8914 2.88825V2.89179ZM21.7205 5.24244C21.4973 5.24244 21.2764 5.2864 21.0702 5.37179C20.864 5.45719 20.6767 5.58235 20.5189 5.74015C20.3611 5.89794 20.236 6.08526 20.1506 6.29143C20.0652 6.49759 20.0212 6.71856 20.0212 6.94171C20.0212 7.16486 20.0652 7.38582 20.1506 7.59199C20.236 7.79815 20.3611 7.98548 20.5189 8.14327C20.6767 8.30106 20.864 8.42623 21.0702 8.51162C21.2764 8.59702 21.4973 8.64097 21.7205 8.64097C22.1712 8.64097 22.6034 8.46194 22.9221 8.14327C23.2407 7.82459 23.4198 7.39238 23.4198 6.94171C23.4198 6.49103 23.2407 6.05882 22.9221 5.74015C22.6034 5.42147 22.1712 5.24244 21.7205 5.24244ZM14.1623 7.22846C13.1977 7.21341 12.2398 7.39039 11.3443 7.74911C10.4488 8.10782 9.63362 8.6411 8.94619 9.31789C8.25876 9.99468 7.71283 10.8015 7.34019 11.6913C6.96755 12.5811 6.77564 13.5361 6.77564 14.5008C6.77564 15.4655 6.96755 16.4205 7.34019 17.3103C7.71283 18.2001 8.25876 19.0069 8.94619 19.6837C9.63362 20.3605 10.4488 20.8937 11.3443 21.2525C12.2398 21.6112 13.1977 21.7882 14.1623 21.7731C16.0714 21.7433 17.8922 20.964 19.2317 19.6034C20.5713 18.2429 21.3221 16.4101 21.3221 14.5008C21.3221 12.5915 20.5713 10.7587 19.2317 9.39812C17.8922 8.03753 16.0714 7.25824 14.1623 7.22846ZM14.1623 9.77913C15.4143 9.77913 16.6151 10.2765 17.5004 11.1618C18.3857 12.0471 18.8831 13.2479 18.8831 14.4999C18.8831 15.7519 18.3857 16.9527 17.5004 17.838C16.6151 18.7233 15.4143 19.2207 14.1623 19.2207C12.9103 19.2207 11.7095 18.7233 10.8242 17.838C9.9389 16.9527 9.44154 15.7519 9.44154 14.4999C9.44154 13.2479 9.9389 12.0471 10.8242 11.1618C11.7095 10.2765 12.9103 9.77913 14.1623 9.77913Z" fill="white"/>
</svg>
