<svg width="19" height="22" viewBox="0 0 19 22" fill="none" xmlns="http://www.w3.org/2000/svg">
<path d="M16.5098 0.795898H2.75977C1.72461 0.795898 0.884766 1.77531 0.884766 2.98249V19.0175C0.884766 20.2247 1.72461 21.2041 2.75977 21.2041H16.5098C17.5449 21.2041 18.3848 20.2247 18.3848 19.0175V2.98249C18.3848 1.77531 17.5449 0.795898 16.5098 0.795898ZM10.4082 16.7124C10.4082 18.6986 9.4082 19.6051 7.95117 19.6051C6.63477 19.6051 5.87305 18.8125 5.48242 17.8513L6.82227 16.9083C7.08008 17.4413 7.31445 17.8923 7.88086 17.8923C8.41992 17.8923 8.76367 17.6463 8.76367 16.6851V10.1663H10.4082V16.7124ZM14.2988 19.6051C12.7715 19.6051 11.7832 18.7578 11.3027 17.6463L12.6426 16.7443C12.9941 17.414 13.4551 17.9105 14.2637 17.9105C14.9434 17.9105 15.3809 17.5142 15.3809 16.963C15.3809 16.307 14.9355 16.0747 14.1816 15.6875L13.7715 15.4825C12.584 14.8948 11.7988 14.1523 11.7988 12.5898C11.7988 11.1503 12.7402 10.057 14.2051 10.057C15.252 10.057 16.002 10.4807 16.541 11.5922L15.2598 12.5488C14.9785 11.9612 14.6738 11.7288 14.2012 11.7288C13.7207 11.7288 13.416 12.0842 13.416 12.5488C13.416 13.1228 13.7207 13.3551 14.4277 13.715L14.8379 13.92C16.2363 14.617 17.0215 15.3322 17.0215 16.9357C17.0215 18.6576 15.8574 19.6051 14.2988 19.6051Z" fill="url(#paint0_linear_19_255)"/>
<defs>
<linearGradient id="paint0_linear_19_255" x1="9.63477" y1="0.795898" x2="9.63477" y2="21.2041" gradientUnits="userSpaceOnUse">
<stop stop-color="#693B93" stop-opacity="0.53"/>
<stop offset="1" stop-color="#693B93"/>
</linearGradient>
</defs>
</svg>
