<svg width="30" height="29" viewBox="0 0 30 29" fill="none" xmlns="http://www.w3.org/2000/svg">
<path d="M6.32694 3.65086C6.32653 4.47303 5.99953 5.26136 5.41787 5.84243C4.83622 6.4235 4.04756 6.74971 3.2254 6.7493C2.40323 6.74889 1.61489 6.42189 1.03382 5.84024C0.452753 5.25859 0.126542 4.46993 0.126954 3.64776C0.127365 2.82559 0.454364 2.03726 1.03602 1.45619C1.61767 0.875117 2.40633 0.548906 3.2285 0.549317C4.05066 0.549728 4.839 0.876727 5.42007 1.45838C6.00114 2.04003 6.32735 2.82869 6.32694 3.65086ZM6.41994 9.04484H0.219953V28.4508H6.41994V9.04484ZM16.2159 9.04484H10.0469V28.4508H16.1539V18.2673C16.1539 12.5943 23.5474 12.0673 23.5474 18.2673V28.4508H29.6699V16.1593C29.6699 6.59585 18.7269 6.95235 16.1539 11.6488L16.2159 9.04484Z" fill="white"/>
</svg>
