<svg width="13" height="11" viewBox="0 0 13 11" fill="none" xmlns="http://www.w3.org/2000/svg">
<path d="M8.08652 7.51934C7.16573 8.12943 6.2444 8.73839 5.32446 9.35034C4.78647 9.70831 4.25425 10.0785 3.71348 10.4305C2.62372 11.1399 1.32899 10.7241 0.711106 9.47465C0.121419 8.28238 0.460321 6.73662 1.50982 6.02216C4.07588 4.27549 6.64856 2.54153 9.23054 0.826873C10.0224 0.301117 10.844 0.367257 11.5763 0.995898C12.3491 1.65942 12.6021 2.5931 12.4286 3.68758C12.3209 3.95252 12.2566 4.26304 12.0953 4.47167C11.8332 4.81109 11.5352 5.13606 11.2035 5.37471C10.1769 6.11297 9.12715 6.80775 8.08652 7.51934Z" fill="url(#paint0_linear_19_266)"/>
<defs>
<linearGradient id="paint0_linear_19_266" x1="6.45182" y1="0.473999" x2="6.45182" y2="10.7757" gradientUnits="userSpaceOnUse">
<stop stop-color="#693B93" stop-opacity="0.53"/>
<stop offset="1" stop-color="#693B93"/>
</linearGradient>
</defs>
</svg>
