<svg width="13" height="11" viewBox="0 0 13 11" fill="none" xmlns="http://www.w3.org/2000/svg">
<path d="M7.03148 3.20278C7.94501 3.82756 8.8579 4.45371 9.77228 5.07674C10.3071 5.4412 10.8481 5.79357 11.3799 6.16363C12.4516 6.90973 12.7902 8.42509 12.1713 9.67378C11.5806 10.8655 10.2634 11.2963 9.20802 10.5934C6.62786 8.87512 4.05389 7.14402 1.48964 5.39362C0.703217 4.85677 0.341565 3.99396 0.442285 2.94008C0.548559 1.82766 1.11539 1.10535 2.01503 0.7333C2.2655 0.709759 2.52825 0.61933 2.76386 0.677872C3.14698 0.773034 3.53737 0.911418 3.88043 1.12715C4.942 1.79478 5.98274 2.5075 7.03148 3.20278Z" fill="url(#paint0_linear_19_267)"/>
<defs>
<linearGradient id="paint0_linear_19_267" x1="6.45258" y1="0.658478" x2="6.45258" y2="10.9323" gradientUnits="userSpaceOnUse">
<stop stop-color="#693B93" stop-opacity="0.53"/>
<stop offset="1" stop-color="#693B93"/>
</linearGradient>
</defs>
</svg>
