<svg width="14" height="11" viewBox="0 0 14 11" fill="none" xmlns="http://www.w3.org/2000/svg">
<path d="M7.54095 1.41534L5.25815 5.80932L7.70046 10.4752C7.71618 10.5078 7.72054 10.5462 7.71275 10.5825C7.70896 10.598 7.70082 10.6018 7.68831 10.6024L7.67445 10.6022L7.65758 10.6017C7.64843 10.6017 7.63821 10.6022 7.62685 10.6043H5.86596L5.83137 10.6037C5.73646 10.6008 5.66807 10.5849 5.62641 10.5037C5.46348 10.1336 5.29982 9.76386 5.13545 9.39457C4.98841 9.06519 4.83737 8.73826 4.68236 8.41389L4.61389 8.27105C4.4285 7.88679 4.24644 7.50034 4.06776 7.11178H4.05547C3.89046 7.49628 3.72066 7.87797 3.54614 8.25671C3.37012 8.63842 3.19625 9.01778 3.02452 9.39457C2.85269 9.77165 2.67677 10.1462 2.49682 10.5181C2.46788 10.5939 2.41978 10.6098 2.35282 10.6123L2.32495 10.6128H0.643595L0.636306 10.6131L0.612294 10.6156C0.59893 10.6165 0.590926 10.6132 0.588353 10.5897C0.583741 10.5548 0.590304 10.5191 0.606791 10.4895L2.97542 5.95242L0.668108 1.40117C0.643595 1.36317 0.639522 1.33217 0.655816 1.30817C0.664873 1.29594 0.676244 1.28633 0.689032 1.28012C0.70182 1.2739 0.715673 1.27123 0.729496 1.27233H2.45995C2.49768 1.26992 2.53541 1.27726 2.57043 1.29383C2.59973 1.31325 2.62496 1.34017 2.64404 1.37259C2.79133 1.75429 2.95498 2.13599 3.135 2.51753C3.31363 2.89665 3.49568 3.27357 3.68114 3.64821C3.86375 4.01705 4.03366 4.39425 4.19047 4.7789H4.20276C4.36345 4.39434 4.52915 4.01265 4.6998 3.63396C4.86738 3.26184 5.03925 2.88723 5.2152 2.51036C5.38891 2.13833 5.5587 1.76382 5.72453 1.38692C5.73396 1.35159 5.75083 1.31958 5.77363 1.29383C5.80394 1.27593 5.838 1.26847 5.87182 1.27233H7.47956C7.49434 1.26803 7.50992 1.26945 7.52395 1.27637C7.53798 1.28328 7.54971 1.29532 7.55737 1.31068C7.56502 1.32604 7.5682 1.34388 7.56641 1.36152C7.56462 1.37917 7.55797 1.39565 7.54745 1.40851L7.54102 1.41551L7.54095 1.41534ZM11.1478 10.7889L11.0632 10.79C10.4983 10.8001 9.93854 10.6632 9.42469 10.3893C8.94601 10.131 8.54586 9.70922 8.27718 9.17988C8.00626 8.65517 7.86719 8.00127 7.86018 7.21845L7.8599 7.1547C7.8553 6.49781 7.99926 5.85111 8.27725 5.27978C8.55547 4.71429 8.96108 4.24836 9.45013 3.93249L9.49223 3.90582C10.0239 3.56229 10.6662 3.39052 11.4191 3.39052L11.4519 3.39094L11.4895 3.39235L11.5317 3.39452L11.5786 3.39769L11.6573 3.40419L11.7465 3.41252L11.8118 3.41919V0.599602C11.8118 0.532929 11.8363 0.499426 11.8854 0.499426H13.4318C13.4418 0.497753 13.452 0.49882 13.4616 0.502542C13.4712 0.506264 13.4799 0.512539 13.487 0.52087C13.4942 0.529201 13.4995 0.539358 13.5027 0.550536C13.5059 0.561713 13.5068 0.573605 13.5054 0.585267V9.04395C13.5054 9.18596 13.5101 9.33898 13.5196 9.50266L13.5424 9.87394L13.5546 10.0887C13.5561 10.1185 13.5499 10.148 13.5367 10.1736C13.5236 10.1991 13.5041 10.2195 13.4809 10.2319C13.0819 10.4259 12.6664 10.5698 12.2413 10.6612C11.8805 10.7389 11.5147 10.7816 11.1478 10.7889ZM11.8118 9.01528V5.10801C11.7454 5.08707 11.6777 5.07271 11.6093 5.06509C11.5257 5.05528 11.4417 5.05049 11.3577 5.05076C11.0599 5.04732 10.7655 5.12578 10.4986 5.27978C10.2386 5.43051 10.0166 5.65737 9.85427 5.93817C9.69226 6.21453 9.60843 6.57539 9.60293 7.02077L9.60264 7.06886C9.59667 7.38082 9.64036 7.69138 9.73149 7.98477C9.80568 8.22122 9.92296 8.43609 10.0752 8.61458C10.221 8.77877 10.3974 8.90124 10.5906 8.97236C10.7948 9.04945 11.0081 9.08813 11.2227 9.08696C11.3372 9.08696 11.4435 9.08212 11.5418 9.07254C11.6201 9.06567 11.6978 9.0506 11.7739 9.02753L11.8118 9.01528Z" fill="black"/>
</svg>
