<svg width="29" height="29" viewBox="0 0 29 29" fill="none" xmlns="http://www.w3.org/2000/svg">
<path d="M28.2813 11.948C28.4464 12.8985 28.5288 13.8615 28.5274 14.8262C28.5274 19.1345 26.9874 22.7773 24.3075 25.243H24.3111C21.9675 27.4078 18.746 28.661 14.9262 28.661C11.1706 28.661 7.56877 27.1691 4.91315 24.5135C2.25754 21.8579 0.765625 18.2561 0.765625 14.5005C0.765625 10.7449 2.25754 7.14307 4.91315 4.48745C7.56877 1.83183 11.1706 0.339924 14.9262 0.339924C18.4414 0.298755 21.8362 1.61939 24.3996 4.0252L20.3567 8.06804C18.8953 6.67495 16.9449 5.91208 14.9262 5.94396C11.232 5.94396 8.0937 8.43621 6.97502 11.7923C6.38188 13.5508 6.38188 15.4554 6.97502 17.214H6.98033C8.10432 20.5647 11.2373 23.057 14.9315 23.057C16.8396 23.057 18.4787 22.5684 19.7496 21.7046H19.7443C20.4822 21.2158 21.1135 20.5824 21.5999 19.8429C22.0864 19.1033 22.418 18.2728 22.5746 17.4016H14.9262V11.9498H28.2813V11.948Z" fill="white"/>
</svg>
