<svg width="15" height="26" viewBox="0 0 15 26" fill="none" xmlns="http://www.w3.org/2000/svg">
<path fill-rule="evenodd" clip-rule="evenodd" d="M4.24032 -0.0043335C1.97569 -0.0043335 0.154356 2.21141 0.154356 4.92577C0.154356 6.57597 0.8281 8.04162 1.8637 8.93633C1.32996 9.40267 0.897334 10.0083 0.600493 10.7048C0.303652 11.4013 0.150856 12.1692 0.154356 12.9469C0.154356 14.5982 0.8281 16.0627 1.8637 16.9575C1.32996 17.4238 0.897334 18.0295 0.600493 18.7259C0.303652 19.4224 0.150856 20.1903 0.154356 20.968C0.154356 23.6824 1.97569 25.8981 4.24032 25.8981C6.50403 25.8981 8.32628 23.6824 8.32628 20.968V16.7999C9.04198 17.4958 9.94413 17.8773 10.876 17.8781C13.1406 17.877 14.9619 15.6613 14.9619 12.9469C14.9656 12.1691 14.8129 11.4011 14.5161 10.7046C14.2192 10.0081 13.7865 9.40249 13.2526 8.93633C13.7863 8.47 14.2189 7.86432 14.5158 7.16785C14.8126 6.47139 14.9654 5.70351 14.9619 4.92577C14.9619 2.21141 13.1406 -0.0043335 10.876 -0.0043335H4.24032ZM1.68972 4.92577C1.68972 3.20865 2.83915 1.83366 4.24032 1.83366H6.79V8.01787H4.24032C2.83915 8.01787 1.68972 6.64181 1.68972 4.92577ZM10.876 8.01679H8.32628V1.83258H10.876C12.2781 1.83258 13.4266 3.20865 13.4266 4.92577C13.4266 6.64181 12.2781 8.01679 10.876 8.01679ZM1.69064 12.9469C1.69064 11.2309 2.84008 9.85479 4.24124 9.85479H6.79092V16.039H4.24032C2.83823 16.039 1.68972 14.6629 1.68972 12.9469H1.69064ZM8.32628 12.9469C8.32628 11.2309 9.47572 9.85479 10.8769 9.85479C12.279 9.85479 13.4275 11.2298 13.4275 12.9469C13.4275 14.6629 12.279 16.039 10.8769 16.039C9.47572 16.039 8.32721 14.664 8.32721 12.9469H8.32628ZM1.69064 20.968C1.69064 19.252 2.84008 17.877 4.24124 17.877H6.79092V20.968C6.79092 22.6851 5.64334 24.0601 4.24124 24.0601C2.84008 24.0601 1.69064 22.6851 1.69064 20.968Z" fill="url(#paint0_linear_19_259)"/>
<defs>
<linearGradient id="paint0_linear_19_259" x1="7.55814" y1="-0.0043335" x2="7.55814" y2="25.8981" gradientUnits="userSpaceOnUse">
<stop stop-color="#693B93" stop-opacity="0.53"/>
<stop offset="1" stop-color="#693B93"/>
</linearGradient>
</defs>
</svg>
