<svg width="135" height="84" viewBox="0 0 135 84" fill="none" xmlns="http://www.w3.org/2000/svg">
<path fill-rule="evenodd" clip-rule="evenodd" d="M2.52248 81.0997C2.52248 81.0997 2.52233 81.0999 2.74321 81.2238C2.86373 81.4465 2.86388 81.4464 2.86388 81.4464L2.87628 81.4397L2.91424 81.4193L3.06374 81.3394C3.19523 81.2694 3.38918 81.1668 3.63861 81.0365C4.13747 80.7759 4.85811 80.4046 5.74448 79.9624C7.51748 79.0778 9.95233 77.9099 12.6008 76.7757C15.2503 75.6412 18.1086 74.5427 20.7295 73.795C23.36 73.0447 25.7159 72.6586 27.3766 72.9182L27.4548 72.4178C25.6779 72.1401 23.2308 72.5549 20.5906 73.308C17.9408 74.0639 15.0607 75.1714 12.4015 76.3102C9.74131 77.4493 7.29718 78.6217 5.51838 79.5092C4.62884 79.953 3.90538 80.3257 3.40411 80.5876C3.39262 80.5936 3.38126 80.5995 3.37001 80.6054C3.44609 80.4644 3.53172 80.3047 3.62587 80.1277C4.03821 79.3528 4.61435 78.2462 5.27004 76.9187C6.58093 74.2648 8.21199 70.7236 9.48748 67.1828C10.7598 63.6507 11.6909 60.0859 11.5752 57.3972C11.5173 56.0511 11.1958 54.8902 10.4884 54.0668C9.77314 53.2342 8.6973 52.7856 7.2198 52.7999L7.22472 53.3064C8.59155 53.2931 9.50899 53.704 10.1043 54.3969C10.7074 55.0989 11.0137 56.1293 11.0692 57.419C11.1804 60.0019 10.2806 63.4867 9.011 67.0111C7.74455 70.5268 6.12261 74.049 4.81596 76.6944C4.16289 78.0166 3.58913 79.1186 3.17877 79.8898C2.97359 80.2754 2.80929 80.5783 2.69638 80.7846C2.63992 80.8877 2.59631 80.9668 2.56687 81.0199L2.53348 81.08L2.52248 81.0997ZM2.74321 81.2238L2.86388 81.4464L2.09473 81.8626L2.52248 81.0997L2.74321 81.2238Z" fill="white"/>
<path fill-rule="evenodd" clip-rule="evenodd" d="M67.3376 19.8456C45.5879 31.5681 26.1772 48.0397 14.4428 67.0338L14.8737 67.3C26.5497 48.4004 45.8841 31.9838 67.5779 20.2915C89.2717 8.59912 113.302 1.64366 134.353 1.64366V1.13721C113.2 1.13721 89.0874 8.12314 67.3376 19.8456Z" fill="white"/>
<path d="M2.74321 81.2238C2.52233 81.0999 2.52248 81.0997 2.52248 81.0997M2.74321 81.2238C2.86373 81.4465 2.86388 81.4464 2.86388 81.4464M2.74321 81.2238L2.86388 81.4464M2.74321 81.2238L2.52248 81.0997M2.52248 81.0997L2.09473 81.8626L2.86388 81.4464M2.52248 81.0997L2.53348 81.08L2.56687 81.0199C2.59631 80.9668 2.63992 80.8877 2.69638 80.7846C2.80929 80.5783 2.97359 80.2754 3.17877 79.8898C3.58913 79.1186 4.16289 78.0166 4.81596 76.6944C6.12261 74.0491 7.74455 70.5268 9.011 67.0111C10.2806 63.4867 11.1804 60.0019 11.0692 57.419C11.0137 56.1293 10.7074 55.0989 10.1043 54.3969C9.50899 53.704 8.59155 53.2931 7.22472 53.3064L7.2198 52.7999C8.6973 52.7856 9.77314 53.2342 10.4884 54.0668C11.1958 54.8902 11.5173 56.0511 11.5752 57.3972C11.6909 60.0859 10.7598 63.6507 9.48748 67.1828C8.21199 70.7236 6.58093 74.2648 5.27004 76.9187C4.61435 78.2462 4.03821 79.3528 3.62587 80.1277C3.53172 80.3047 3.44609 80.4644 3.37001 80.6054C3.38126 80.5995 3.39262 80.5936 3.40411 80.5876C3.90538 80.3257 4.62885 79.953 5.51838 79.5092C7.29718 78.6217 9.74131 77.4493 12.4015 76.3102C15.0607 75.1714 17.9408 74.0639 20.5906 73.308C23.2308 72.5549 25.6779 72.1401 27.4548 72.4178L27.3766 72.9182C25.7159 72.6586 23.36 73.0447 20.7295 73.795C18.1086 74.5427 15.2503 75.6412 12.6008 76.7757C9.95233 77.9099 7.51748 79.0778 5.74448 79.9624C4.85811 80.4047 4.13747 80.7759 3.63861 81.0365C3.38918 81.1668 3.19523 81.2694 3.06374 81.3394L2.91424 81.4193L2.87628 81.4397L2.86388 81.4464M14.4428 67.0338C26.1772 48.0397 45.5879 31.5681 67.3376 19.8456C89.0874 8.12314 113.2 1.13721 134.353 1.13721V1.64366C113.302 1.64366 89.2717 8.59912 67.5779 20.2915C45.8841 31.9838 26.5497 48.4004 14.8737 67.3L14.4428 67.0338Z" stroke="white"/>
</svg>
