<svg width="28" height="29" viewBox="0 0 28 29" fill="none" xmlns="http://www.w3.org/2000/svg">
<path d="M27.3942 14.6616C27.3942 12.5719 25.1503 10.5912 21.7095 9.36364C22.504 5.27483 22.1513 2.0206 20.596 0.978354C20.2191 0.732211 19.7926 0.608313 19.3608 0.619548V2.05214C19.6144 2.05214 19.8183 2.11129 19.9897 2.22038C20.7391 2.72244 21.0648 4.63082 20.8113 7.08726C20.7504 7.69184 20.6512 8.32797 20.5295 8.97723C19.3773 8.65344 18.2078 8.41941 17.029 8.27671C16.3267 7.14678 15.5605 6.0728 14.7355 5.06191C16.5331 3.11411 18.2202 2.04689 19.3675 2.04689V0.612976C17.8506 0.612976 15.8659 1.8734 13.8587 4.05909C11.8526 1.88786 9.86676 0.639262 8.35092 0.639262V2.07186C9.49259 2.07186 11.1854 3.13382 12.983 5.06848C12.211 6.01478 11.439 7.08726 10.7053 8.27671C9.52396 8.41783 8.35245 8.65409 7.19911 8.98381C7.07722 8.36843 6.98131 7.74646 6.91172 7.12012C6.6525 4.66236 6.97258 2.75398 7.71754 2.24666C7.88208 2.131 8.09734 2.07843 8.35092 2.07843V0.645834C7.88884 0.645834 7.46847 0.761493 7.10557 1.00464C5.55591 2.04689 5.20879 5.29323 6.00785 9.37021C2.57833 10.6057 0.345703 12.5784 0.345703 14.6616C0.345703 16.7514 2.5896 18.732 6.03039 19.9583C5.23584 24.0484 5.5886 27.3026 7.14389 28.3436C7.50228 28.588 7.92153 28.7037 8.38361 28.7037C9.90057 28.7037 11.8853 27.4433 13.8925 25.2576C15.8986 27.4301 17.8833 28.6774 19.4002 28.6774C19.8354 28.6881 20.2651 28.5638 20.6456 28.3173C22.1952 27.2764 22.5424 24.03 21.7433 19.953C25.1615 18.7255 27.3942 16.7448 27.3942 14.6616ZM20.2151 10.373C20.0009 11.2324 19.7527 12.0797 19.4712 12.9123C19.0105 11.8671 18.5045 10.8498 17.9554 9.86439C18.7387 9.99977 19.4938 10.1667 20.2162 10.373H20.2151ZM17.6905 17.2206C17.2777 18.061 16.8344 18.8806 16.3618 19.677C14.7076 19.847 13.0439 19.8492 11.3894 19.6836C10.4404 18.1027 9.61041 16.4291 8.9088 14.6813C9.60933 12.9295 10.4358 11.2499 11.3792 9.66068C13.033 9.4903 14.6963 9.48766 16.3505 9.65279C16.8081 10.4177 17.2555 11.2352 17.6849 12.0974C18.1042 12.9386 18.4851 13.7929 18.8322 14.655C18.4812 15.5277 18.1004 16.3836 17.6905 17.2206ZM19.4712 16.3847C19.7688 17.2455 20.0235 18.1077 20.232 18.9436C19.5107 19.15 18.7488 19.3235 17.961 19.4575C18.5079 18.4632 19.0119 17.4376 19.4712 16.3847ZM13.8812 23.2454C13.3684 22.6276 12.8556 21.9403 12.3485 21.1872C12.8443 21.2134 13.3515 21.2332 13.8643 21.2332C14.3827 21.2332 14.8955 21.22 15.397 21.1872C14.9012 21.9403 14.3884 22.6276 13.8812 23.2454ZM9.77886 19.4575C9.01896 19.3291 8.26455 19.1598 7.51806 18.9502C7.72205 18.1209 7.97563 17.2653 8.26189 16.411C8.48842 16.9235 8.72622 17.4388 8.98543 17.954C9.24465 18.4679 9.50837 18.9699 9.77886 19.4575ZM13.853 6.07787C14.3658 6.6956 14.8786 7.38298 15.3858 8.13608C14.8899 8.10979 14.3827 8.09008 13.8699 8.09008C13.3515 8.09008 12.8387 8.10322 12.3372 8.13608C12.8331 7.38298 13.3459 6.6956 13.853 6.07787ZM9.77322 9.86571C9.22647 10.8579 8.72244 11.8813 8.26302 12.932C7.97361 12.0941 7.71973 11.24 7.50228 10.373C8.22357 10.1733 8.98543 9.99977 9.77322 9.86571ZM4.78391 17.9145C2.83191 16.9446 1.56965 15.671 1.56965 14.6616C1.56965 13.6522 2.83191 12.3721 4.78391 11.4087C5.25725 11.1708 5.77568 10.9579 6.31102 10.7594C6.62546 12.0185 7.03907 13.3302 7.55074 14.6748C7.06766 15.9394 6.65911 17.2409 6.32792 18.5704C5.80437 18.3813 5.28908 18.1624 4.78391 17.9145ZM7.75022 27.1015C7.00075 26.6021 6.67505 24.6911 6.92862 22.236C6.98948 21.6314 7.08866 20.994 7.21038 20.3447C8.29006 20.6536 9.47005 20.8914 10.7109 21.0465C11.4132 22.1764 12.1794 23.2504 13.0044 24.2613C11.2068 26.2091 9.51964 27.2764 8.37234 27.2764C8.15588 27.2791 7.94219 27.2195 7.75022 27.1029V27.1015ZM20.8282 22.2031C21.0874 24.6596 20.7673 26.5693 20.0223 27.0766C19.8578 27.1922 19.6425 27.2435 19.389 27.2435C18.2473 27.2435 16.5545 26.1828 14.7569 24.2469C15.5784 23.2402 16.3395 22.1687 17.0346 21.04C18.2159 20.8988 19.3874 20.6626 20.5408 20.3329C20.6681 20.9821 20.7662 21.6051 20.8282 22.2031ZM22.9503 17.9145C22.477 18.1524 21.9586 18.3653 21.4232 18.5638C21.0862 17.2276 20.672 15.9195 20.1835 14.6485C20.6907 13.3118 21.0975 12.0067 21.4063 10.7529C21.9315 10.9425 22.4487 11.1614 22.956 11.4087C24.908 12.3787 26.1702 13.6522 26.1702 14.6616C26.1646 15.671 24.9023 16.9511 22.9503 17.9145Z" fill="url(#paint0_linear_19_253)"/>
<defs>
<linearGradient id="paint0_linear_19_253" x1="13.8699" y1="0.612976" x2="13.8699" y2="28.7037" gradientUnits="userSpaceOnUse">
<stop stop-color="#693B93" stop-opacity="0.53"/>
<stop offset="1" stop-color="#693B93"/>
</linearGradient>
</defs>
</svg>
