<svg width="22" height="31" viewBox="0 0 22 31" fill="none" xmlns="http://www.w3.org/2000/svg">
<path d="M11.0339 30.0845C10.711 30.0845 10.3832 29.9779 10.0987 29.7767L7.12443 27.6164C6.68094 27.3086 6.89786 27.202 7.04248 27.1429C7.63542 26.8884 7.75593 26.8351 8.38743 26.3912C8.45492 26.3438 8.54169 26.3616 8.60918 26.4149L10.8941 28.078C10.9761 28.1372 11.0918 28.1372 11.1689 28.078L20.0726 21.7687C20.1545 21.7095 20.2076 21.5911 20.2076 21.4727V8.85406C20.2076 8.72977 20.1545 8.61731 20.0678 8.55221L11.1689 2.24879C11.087 2.1896 10.9761 2.1896 10.8941 2.24879L2.00013 8.55812C1.91336 8.61731 1.86033 8.73569 1.86033 8.85998V21.4727C1.86033 21.5911 1.91336 21.7095 2.00013 21.7628L4.43935 23.491C5.76502 24.3019 6.57488 23.349 6.57488 22.3842V9.93126C6.57488 9.7537 6.69058 9.61757 6.8352 9.61757H7.96322C8.10302 9.61757 8.22353 9.7537 8.22353 9.93126V22.3901C8.22353 24.5564 7.25941 25.7993 5.58666 25.7993C5.07085 25.7993 4.66592 25.7993 3.5379 25.1127L1.20473 23.4614C0.626256 23.053 0.269531 22.2895 0.269531 21.4668V8.85406C0.269531 8.03728 0.626256 7.26785 1.20473 6.85946L10.0987 0.550117C10.6628 0.159482 11.41 0.159482 11.9691 0.550117L20.8728 6.86537C21.4513 7.27377 21.808 8.03728 21.808 8.85998V21.4727C21.808 22.2895 21.4513 23.053 20.8728 23.4673L11.9691 29.7767C11.6847 29.9779 11.3617 30.0845 11.0339 30.0845ZM18.2215 17.6493C18.2215 15.2877 16.9199 14.6603 14.1866 14.2164C11.4196 13.7666 11.14 13.5358 11.14 12.7426C11.14 12.0857 11.3762 11.2097 13.425 11.2097C15.252 11.2097 15.9269 11.695 16.2065 13.2102C16.2306 13.3523 16.3366 13.4588 16.4571 13.4588H17.6141C17.6864 13.4588 17.7539 13.4233 17.8021 13.3582C17.8503 13.2931 17.8744 13.2043 17.8696 13.1155C17.6912 10.5054 16.2788 9.29204 13.425 9.29204C10.8845 9.29204 9.37083 10.606 9.37083 12.8137C9.37083 15.2048 10.8797 15.8677 13.3141 16.1637C16.2306 16.5129 16.4571 17.0396 16.4571 17.744C16.4571 18.9632 15.6569 19.4841 13.7817 19.4841C11.4244 19.4841 10.9086 18.7561 10.7351 17.3178C10.7158 17.1639 10.6097 17.0515 10.4796 17.0515H9.32745C9.18283 17.0515 9.07196 17.1935 9.07196 17.3652C9.07196 19.2059 9.88664 21.4017 13.7865 21.4017C16.6017 21.3958 18.2215 20.0286 18.2215 17.6493Z" fill="url(#paint0_linear_19_256)"/>
<defs>
<linearGradient id="paint0_linear_19_256" x1="11.0388" y1="0.257141" x2="11.0388" y2="30.0845" gradientUnits="userSpaceOnUse">
<stop stop-color="#693B93" stop-opacity="0.53"/>
<stop offset="1" stop-color="#693B93"/>
</linearGradient>
</defs>
</svg>
