<svg width="32" height="31" viewBox="0 0 32 31" fill="none" xmlns="http://www.w3.org/2000/svg">
<path d="M26.971 4.51057C25.5498 3.07544 23.8571 1.93753 21.9917 1.16314C20.1262 0.388758 18.1253 -0.00660789 16.1056 8.35372e-05C7.64257 8.35372e-05 0.745094 6.89757 0.745094 15.3605C0.745094 18.073 1.45809 20.708 2.79109 23.033L0.621094 31L8.75857 28.861C11.0061 30.0855 13.5326 30.7365 16.1056 30.7365C24.5685 30.7365 31.466 23.839 31.466 15.376C31.466 11.2686 29.8695 7.40906 26.971 4.51057ZM16.1056 28.1325C13.8116 28.1325 11.5641 27.5125 9.59557 26.35L9.13057 26.071L4.29458 27.342L5.58108 22.63L5.27108 22.1495C3.99628 20.1145 3.31952 17.7619 3.31809 15.3605C3.31809 8.32356 9.05307 2.58858 16.0901 2.58858C19.5 2.58858 22.7085 3.92157 25.111 6.33957C26.3008 7.52355 27.2437 8.932 27.8849 10.4832C28.5262 12.0344 28.853 13.6975 28.8465 15.376C28.8775 22.413 23.1425 28.1325 16.1056 28.1325ZM23.1115 18.5845C22.724 18.3985 20.833 17.4685 20.492 17.329C20.1355 17.205 19.8875 17.143 19.624 17.515C19.3605 17.9025 18.632 18.7705 18.415 19.0185C18.198 19.282 17.9655 19.313 17.578 19.1115C17.1905 18.9255 15.9506 18.507 14.4936 17.205C13.3466 16.182 12.5871 14.9265 12.3546 14.539C12.1376 14.1515 12.3236 13.95 12.5251 13.7485C12.6956 13.578 12.9126 13.299 13.0986 13.082C13.2846 12.865 13.3621 12.6946 13.4861 12.4466C13.6101 12.1831 13.5481 11.9661 13.4551 11.7801C13.3621 11.5941 12.5871 9.70306 12.2771 8.92806C11.9671 8.18406 11.6416 8.27706 11.4091 8.26156H10.6651C10.4016 8.26156 9.99857 8.35456 9.64207 8.74206C9.30107 9.12956 8.30907 10.0596 8.30907 11.9506C8.30907 13.8415 9.68857 15.6705 9.87457 15.9185C10.0606 16.182 12.5871 20.057 16.4311 21.7155C17.3455 22.1185 18.0585 22.351 18.6165 22.5215C19.531 22.816 20.368 22.7695 21.0345 22.6765C21.7785 22.568 23.313 21.7465 23.623 20.8475C23.9485 19.9485 23.9485 19.189 23.84 19.0185C23.7315 18.848 23.499 18.7705 23.1115 18.5845Z" fill="white"/>
</svg>
